<?xml version="1.0" encoding="UTF-8" standalone="no"?>
<!DOCTYPE svg PUBLIC "-//W3C//DTD SVG 1.1//EN"
 "http://www.w3.org/Graphics/SVG/1.1/DTD/svg11.dtd">
<!-- Generated by graphviz version 3.0.0 (20220226.1711)
 -->
<!-- Title: dependencies Pages: 1 -->
<svg width="614pt" height="174pt"
 viewBox="0.00 0.00 614.00 173.80" xmlns="http://www.w3.org/2000/svg" xmlns:xlink="http://www.w3.org/1999/xlink">
<g id="graph0" class="graph" transform="scale(1 1) rotate(0) translate(4 169.8)">
<title>dependencies</title>
<polygon fill="white" stroke="transparent" points="-4,4 -4,-169.8 610,-169.8 610,4 -4,4"/>
<text text-anchor="middle" x="303" y="-8.2" font-family="sans-serif" font-size="14.00">dependencies</text>
<g id="clust1" class="cluster">
<title>cluster_AppModule</title>
<polygon fill="none" stroke="black" stroke-dasharray="1,5" points="8,-32.8 8,-157.8 598,-157.8 598,-32.8 8,-32.8"/>
</g>
<g id="clust3" class="cluster">
<title>cluster_AppModule_imports</title>
<polygon fill="none" stroke="black" points="16,-40.8 16,-92.8 590,-92.8 590,-40.8 16,-40.8"/>
</g>
<!-- AuthModule -->
<g id="node1" class="node">
<title>AuthModule</title>
<polygon fill="#8dd3c7" stroke="black" points="581.55,-84.8 578.55,-88.8 557.55,-88.8 554.55,-84.8 494.45,-84.8 494.45,-48.8 581.55,-48.8 581.55,-84.8"/>
<text text-anchor="middle" x="538" y="-62.6" font-family="Times,serif" font-size="14.00">AuthModule</text>
</g>
<!-- AppModule -->
<g id="node6" class="node">
<title>AppModule</title>
<polygon fill="#8dd3c7" stroke="black" points="336.66,-149.8 333.66,-153.8 312.66,-153.8 309.66,-149.8 253.34,-149.8 253.34,-113.8 336.66,-113.8 336.66,-149.8"/>
<text text-anchor="middle" x="295" y="-127.6" font-family="Times,serif" font-size="14.00">AppModule</text>
</g>
<!-- AuthModule&#45;&gt;AppModule -->
<g id="edge1" class="edge">
<title>AuthModule&#45;&gt;AppModule</title>
<path fill="none" stroke="black" d="M538,-85.08C538,-106.12 538,-137.8 538,-137.8 538,-137.8 346.77,-137.8 346.77,-137.8"/>
<polygon fill="black" stroke="black" points="346.77,-134.3 336.77,-137.8 346.77,-141.3 346.77,-134.3"/>
</g>
<!-- CategoriesModule -->
<g id="node2" class="node">
<title>CategoriesModule</title>
<polygon fill="#8dd3c7" stroke="black" points="476.92,-84.8 473.92,-88.8 452.92,-88.8 449.92,-84.8 357.08,-84.8 357.08,-48.8 476.92,-48.8 476.92,-84.8"/>
<text text-anchor="middle" x="417" y="-62.6" font-family="Times,serif" font-size="14.00">CategoriesModule</text>
</g>
<!-- CategoriesModule&#45;&gt;AppModule -->
<g id="edge2" class="edge">
<title>CategoriesModule&#45;&gt;AppModule</title>
<path fill="none" stroke="black" d="M417,-84.82C417,-102.17 417,-125.8 417,-125.8 417,-125.8 346.99,-125.8 346.99,-125.8"/>
<polygon fill="black" stroke="black" points="346.99,-122.3 336.99,-125.8 346.99,-129.3 346.99,-122.3"/>
</g>
<!-- PostsModule -->
<g id="node3" class="node">
<title>PostsModule</title>
<polygon fill="#8dd3c7" stroke="black" points="339.62,-84.8 336.62,-88.8 315.62,-88.8 312.62,-84.8 250.38,-84.8 250.38,-48.8 339.62,-48.8 339.62,-84.8"/>
<text text-anchor="middle" x="295" y="-62.6" font-family="Times,serif" font-size="14.00">PostsModule</text>
</g>
<!-- PostsModule&#45;&gt;AppModule -->
<g id="edge3" class="edge">
<title>PostsModule&#45;&gt;AppModule</title>
<path fill="none" stroke="black" d="M295,-84.91C295,-84.91 295,-103.79 295,-103.79"/>
<polygon fill="black" stroke="black" points="291.5,-103.79 295,-113.79 298.5,-103.79 291.5,-103.79"/>
</g>
<!-- PrismaModule -->
<g id="node4" class="node">
<title>PrismaModule</title>
<polygon fill="#8dd3c7" stroke="black" points="232.44,-84.8 229.44,-88.8 208.44,-88.8 205.44,-84.8 133.56,-84.8 133.56,-48.8 232.44,-48.8 232.44,-84.8"/>
<text text-anchor="middle" x="183" y="-62.6" font-family="Times,serif" font-size="14.00">PrismaModule</text>
</g>
<!-- PrismaModule&#45;&gt;AppModule -->
<g id="edge4" class="edge">
<title>PrismaModule&#45;&gt;AppModule</title>
<path fill="none" stroke="black" d="M183,-84.82C183,-102.17 183,-125.8 183,-125.8 183,-125.8 243.3,-125.8 243.3,-125.8"/>
<polygon fill="black" stroke="black" points="243.3,-129.3 253.3,-125.8 243.3,-122.3 243.3,-129.3"/>
</g>
<!-- UsersModule -->
<g id="node5" class="node">
<title>UsersModule</title>
<polygon fill="#8dd3c7" stroke="black" points="115.94,-84.8 112.94,-88.8 91.94,-88.8 88.94,-84.8 24.06,-84.8 24.06,-48.8 115.94,-48.8 115.94,-84.8"/>
<text text-anchor="middle" x="70" y="-62.6" font-family="Times,serif" font-size="14.00">UsersModule</text>
</g>
<!-- UsersModule&#45;&gt;AppModule -->
<g id="edge5" class="edge">
<title>UsersModule&#45;&gt;AppModule</title>
<path fill="none" stroke="black" d="M70,-85.08C70,-106.12 70,-137.8 70,-137.8 70,-137.8 243.21,-137.8 243.21,-137.8"/>
<polygon fill="black" stroke="black" points="243.21,-141.3 253.21,-137.8 243.21,-134.3 243.21,-141.3"/>
</g>
</g>
</svg>
